<mxfile host="app.diagrams.net" agent="Mozilla/5.0 (X11; Linux x86_64) AppleWebKit/537.36 (KHTML, like Gecko) Chrome/133.0.0.0 Safari/537.36" version="26.0.10">
  <diagram name="Page-1" id="b8iokZXvs7-ipuYveu93">
    <mxGraphModel dx="1951" dy="1021" grid="1" gridSize="10" guides="1" tooltips="1" connect="1" arrows="1" fold="1" page="1" pageScale="1" pageWidth="850" pageHeight="1100" math="0" shadow="0">
      <root>
        <mxCell id="0" />
        <mxCell id="1" parent="0" />
        <mxCell id="vbEgGCxjRnSzqnuDYByg-1" value="" style="shape=image;verticalLabelPosition=bottom;labelBackgroundColor=default;verticalAlign=top;aspect=fixed;imageAspect=0;image=data:image/png,iVBORw0KGgoAAAANSUhEUgAAAQAAAAEACAYAAABccqhmAAAACXBIWXMAAAsTAAALEwEAmpwYAAAAAXNSR0IArs4c6QAAAARnQU1BAACxjwv8YQUAADQxSURBVHgB7Z0LkCRHeef/WT2zu1qtVqMHbwm1noYIG83wcFyEbZj144LANtJYtuN8EfaOsB1hnwW76zNa9IDpES8DQrtryZi4A+/swdl3NjDCgjPPmMU4wg5AmhXi4PyQ1YDMQxLa0QOxu9NdeZlVndVZWZlZ1T39ru8X0VNV+aqa7vq+/L7Mr7IYCGKCqa6enJneNl2tIJyNEkJWbwZs419+cdcJEGAgiAnjRfc8Nd8Erg0Cdo04rDoLMhwPeXiscqZ5/P8tnFdHCSEFQEwMUvB/+PRTS5unTs9HCRyY3rEdO3fvzr3TRdGV4MzmctkUASkAYvyprc3s2nXO0Wee/uG14ZkGInHm7ezp7duw89zduODii4RC2OFtirNyKQJSAMR4U1urYjNcE3dyVRd6hPpBrBCmt2/HBS+8COc+59m5zUqLIHzsu2/718UrH8QEQwqAGF9qa7NC+FcRCOEPW2m8Jfi89Ydr6TxOurB6MS645OJCpwgb/Dj/UWP5X3/jvOOYQEgBEONJbW0eDSH8DDOx8CvBZ9p+a9vk8Z3OkSiGi6/+ceycORdFEa7F34Xh1J8/+Ku7jmGCIAVAjB9vWduLMFxJpUXCrfX+DFqvz9P5iN2B6stmEUxPoRN4A/VmA7VJUQSkAIjx4ta1JdEf1zLpXDf3zTRDEbTynv/jL8Y5z7ogqaILgyrGjP2EEHUeoPbPvzTeioAUADE+SOFnvBYJMmNpgU6Z/SweBNQVgakExGeXEP7n/8SLsRUYF4qAja8iIAVAjAdLa4eEUO9PjjVzPqUEdDcg+bTSwnS+dAMu/alXoCcIRYBYEXxIngljAikAYrQRc/xo4pCQsMU4odXDZxQAR3owUOVZxgE0K+Cqn/8Z9BShCMTMwUrje41j9d8f/VgCUgDE6CKFv9EUc/xsNpPHzWOujfIjLeiSkGfTdQVgGwRwSYctL1u/3nzm9IebYfDB+m+MriIgBUCMJjLApxmuwRXLrw/4ybs41Ab8oo0xKBjaxgE4rvq5VxoNtUhG/4pJu6sMl1OQnK1sYnO5PoLRhQEIYtQoKvwM6WH6JFHftiokcQAW1yGlKTQFkkl3pcHehtiyijj1FF+cZlMPXfmJp49WV09WMUKQAiBGCxnd5xN+hZrnTwkckPENTNcgmj1A2kLI4MzIwV0vUgScL26bGi1FQAqAGB06Ev7Wvin/Cs7tx9yjLAbEKCkCUgDEaCCj+2Lhn7Fa1TZ0V8AkURIsXUaZ/b5BvgGhFMEVq49/6Iq/PDmPIUCDgMTwuXVtnxilO5wcK+HN+PcG3GHuS0Jt7h+aGxCmpwOv+oVXYlQIGziOU4N98IgsAGK4xKG9h1NpeT2/iTm4p6enjodj8hclmMJ8sGtq7cq7N+6//CNP7sUAIAVADA9XXH+nRLMBmjGrQoWh0plh8o+2ImCVyksq29nKlXc/+VC/FQEpAGI43LJ2dMvCrwu5rbfXHVzT2c1zL0YAVmFVqQiuuufph676xNN9UQQ0BkAMlii6j68K6ZtHL0jN6/N2OHBqOp638ngqCEiWveo/5owB+AYa8+oVqaOPdTBHfnJ+VkePHzwiBUAMjmj5ruaqNbTXGl2ncETdmT595glAGAKvK4C4/NAHAX2WiDNPKIIAtWf+uX7Pw3/4449ji6cniP4TC3+8dp+TLuxyvbipAMyFQDg0JdCyAEZoFqBzWD3c5CuNR7p/8IgUANF/Cgl/l6QCggyBV66AMfWnp423AlCwevNUeLw53ez4eQMaBCT6y81rs2g01/sq/Pq+ej7AVmZi4dXKDrY4jamHrvzokx1FF5ICIPrHTZ++FoHo+WV0nw1ubH1Yy2rmPLgln9kf0jPrTAjR8wbTLUXwN8XCjEkBEP3hls/tRVBZFTIWCz+3fAA4H7grWpYZob6JBcDTYwKmgphg5zdSBOCRIrji408t+cqSAiB6z82flzfdSnLcr45WrQuon0NNBbqm1ZKgockf/pKKIBDThleuPvmQyxogBUD0Fin8cuHOQcEsDj9r/XEpnlKMC7SRAUXbKtNrNiVACoDoHbd8/tBAhV9ixgIw7bG/TCdfMslPwWMl8JdpJUAKgNg6Mrrv5s8fFTfZfgwS6wNAHPkP/VgGAG1jgub4g23WQc/jOacsekmusY+8+uZ+Jo1Xp3dU1qpHTyaDsqQAiK0hhX+zIeb41aq9Q4Ylf+wCrQ8G2gQ3NcCIbDs+pWBr1yXYvvPDcswL1PcNmLb2WcCqUzNBoqhJARDdEwf4rIvbahbDRglrakV+1/SgXsHDhHoMAQuWlCtACoDoDhXdl7d8VwruSCtqO5v+vqUZ5kj3tlsyxPczvS22AigUmOgcGd3HmvKJvmo2c4DP2XKk3/prPgAUxQJoeebzAdGzAK9CGRH//sbmycalZAEQnXHws/NC+NdSwp/qZXmxTp178oqkedtixpbbIwJLbAWIyZKZytmVazt7NzJRbmR0H+cr3lF234CWr6wv3TQqbGv828qHPG0hDNA4GRNeRRYAUYybP7cvEn4f/RIu18g4Y8XL6pbJiK8NOCjEjMAsKQAinyi0lx/GqOF8QzDaPb5JAZ2hp/s8krytrU6nFG2zyHVm0hivkgtA+Lnls4fAw8EG+BRFfxYggresgsREELutUUDdFVDp3C9g8OT1WwmY7z7Rt642i+YnaYzNkAIg3Nz8uaNCwBYxDkQvCJU7ulXA7bMEGUUxevT6ylztkQIgsuxfm8FZjd4t3NkvMs8BwOLjWwQ9ZQ2otrQ8GOl5k+WuumZ922UxT5tFlki0XUMH10wKgEhzcK2KihR+DD+6rxNsdnLyAlHDoPbZzb4BgaLXUCTdeb059bpp1wMpAKJNJPydRveNEpoEpXp5XejlKkEcHc0E9Noe3+p5enU9nEKBCUUi/LbovhFGfylIZlaAWzwAPjiBHgNIARBxaG+lsS5GxqtJWl4PaXvsNu84D+srvH3plrRktZ8c256UQAQpgLIjo/vQWBOC1Fq7j6cFzvVRmGm+47yPKu9qx0wP9PcBIl0umuqzvRtMsxhIC5ACKDUyui8MVxLhHzf0RT/N8H9FZvSc28uVFFIAZeXmzy4Jk3/0ovs6IhnlM5JtbkFLWej7BCmAUhIJ/4DX7usH+vp/utCb8QAqIEgSPSDEyAJoQdOAZePmz4xPdF/HGD17EirM27MC0YYsAAUpgLKwf3UGZ50thB/XYlKwLgpqy2dpobcF2tsi6LhR1pbnvT5PfVs513En5fVzmuc2y4EUQDmIhX8N4xbdl4f5MFBKH3B3eW4pwh3VuGPfdmyDFyzfadtFrrPA/0cKYNI5+LdVBBUp/FVMMuZoP7fEAih3INknaBBwkpl04TdfCyZJ4v+1Li9jUnMaBGxBCmBSufkzs5Hw85bwu8xCQ1Yyx7CUt7UDTzu2+nDkueoVJSprCQbYSpsTDLkAk4hcuJNjtR3d10p3CbYtrUjZTn1oX1rR68krx9QiIDkklkK5IQtg0rjpc3vBeCu0t2iX3In059XnyB/tyjMDzDTArm1sTRjlrAqIkQXQghTAJPGmTy+BN1eK2fF56TblkWenc0d7vGB+0Wtp7Wd8ewWzuAK8nUfSn9BfF+DQujRBYzP0wFwdRP+Qwg/UUDa4L7G11acL9WXCiD4ogEMPzKMS7EUUcMLaD5kc+br8e1ykrWDfiz8s9psgesPBTx8Sf0dz4c6+YpFi62qaoadQuendZMihdTHltP2o2JsvULqOM6fehje+9IMgukcG+Ow4Wwj/pIb2FsA2FRg9Jcg1BcDb5Zpanthe+Qs/63YlVLrT1TDKAJ1JlK19M433sE2zaNgrBXDXN/aiKZ8sYzPF/oPWt9XY/FOceerNuOlnToLojCi6b6ec5pus6L5O0RWALcrPXHMg1NOAK3/+Z1FWpALY+iDgnV/fJ4R/BZGvbxu0UVvLYM/U9B9g5/n34Z1fvAxEcWSADwl/jFoSLNMDG/eaSuqqq55ctqYAjnxjSZhbhzt2p9Llxc183jpu/+oBEPlI4WcBCb/EuixZ8sewAkBY6F4BSOHnYa3QbJHNAEgds92YqtyB20/cCQpOcvPGz8xGwl80tNf2nZv5ZnoRQXEZer6ytn3f+XkH53Z15voKQNExS5+clEKXdtDhbxwVztQi+kMd/MwemjY0kMIfQAj/mC7f1Q9sqwDrW5UdGuMAarwglIOAP4ey0vkYgJzXP/z1tT4Kv6QKPnU/3nPfb4OIufHTe0n4HahePdWVOVYKSlAuApkAxRWAnOZj2+RNOI9+EwS7Mb39A8IleCvKHq148DP7wORruXXh17s3wG7L8gJ5LngHxxzdtVfU1s/JyxNi0w1ITs830GjsQckp5gIkwj+Ex0pDXgfbLKdLcOOnl4Tw1zDyDDGwJqVHDBcg1Hp6rqWFjb/DM6f3YuU36ld+7KnSmgHFXIBhCr8kYFWEwRfx7vuuQ5kYG+GXjJoMeR72aWwewft+5VVS+EHkKIBDXxOjztPrGPaCEpWpi7Bt+0dwxwPLKINLcPBTR8dH+IdIsuCn4YYotyD1LJAw+c+c+RW8/7quQqa5Y9gg71hP556hB+uMJrdvffXMfVcbtq8ozZFv7AVvHk7i+VXDRRdCdKXp7XBkrce8xRGb4VcRNK6ZSJdARvdtP0u+mXceRDHMUGA1wq/P/Yf8BE4/tYD3Z3v9Kz7qdgHMJQddaeOKOxT4jq/LgaetvzSiX64hD7+FHz3xO7jlpz+LSUEG+ICN32u5h4k5DZgJBY78/SM4fM0BOO5EnwKYdOxjAHd8Y6knwh+dAf2BBS/EzvM+g9sjl2D8iYV/DST83aGEP5UmTP4fnXqdEP796N+dOPakLYBI+MMaxonG5t9jiv/m2LoEbeGvRscuFwqwW1S+J8Y4On+izHTLfGvLA1nX0JUPT7qZZ7sOW1nV48vjUCvYDO8H37wWhxfqyIEsAMU4Cr9kavqnwae+gNuOvwLjhozu48E65MKdahxL3fT6R2ETppTva6nny8+r49p3XZsv35duuz7A3W8nZRiS14GrgCDOj+Dko/NFhJ9Qt5FcxAPBGsYdHtTwhy8eD7fgxv9zrZjeOAqK7ts6sSWwgdOnlnHnQkfuK1kAEcFRTALSgnnXfZ+MYhdGGRnai2CVhL9HyGCxU5sv7VT4CakAot5/yPP8vWTb9teIP2u46WNXYRSRAT6Qob3ElpE9fzM8hh98fw53vfYhdIXP3+FbKO/zxcy6vvK+feSku/y3dloAzhYxeVTx7B/7J9z+f5cwSsTCX4sPXDeYzlasU55zXPQa9Lp5bXJPvW4EzTcYwDawuXkA733NIlau38CWsA1gmHmuMq7yZvuubV553z7PSbfVS6dNicGTq6N9c7RXvxbf6spFAoN0bG13sgXy4wvUOSoQLsG9V+FHj74etVc/jmFy46cOCVvVEoU2bCXgS7eV6VYJ+PZtx57zcmHyb/IFHH7tCRBbQlgAcu6ZG78NdygWni6j6pnrrpmRWHpDZlupLUc2sss4hnEdKbSy6hqmt/9n7L7oXtTWrsAwkNF9B//2qLiYEq7a2wea4d3YPD2Hw7/YG+Ev1lH6O1ZXe7a8PD2apwc7ybNds7EN8v/DvP8878ryvlVXG75r6eT6Iqo458J/GfiyY1L4t22Xy3ctgtga8QIewuT/RdHzL2zR5Dfbtuz7bnEzzydoZp4r31fPl55Xx3ZObSsVQG+/zJ7A0XPkPHEQ3CFmCe5E7VPno9/IAJ/p7eugtft6gTT553D7a2iUv8fIQcBy+VHT226IXIJ3fql/KxFL4Q/lCj4qwIe7tT7g7yFsW3jSO+kxfOV97ZtpvvZsZW31zLqKzeZxnDnVO5OfSCEtgC+gfFSx7ax1vPtE712CN35yFg2+JszVamrEMzUmotLgF17XNk+QgWJC5yufpyh814KcsrZ6Zt2wZfIf+qU9PTf5iYRA9FTHUUaYXIl46g68Z/0IerUS8f575uOeXwi//vppjvZzpJPyLGl/qaPR3EMmf/+Ju6j3fm1N7M2jvNS3vOzYgU/sFUK+Eu2z5E962lN/mJwVfTqnZIT8OH54+nq8fzCx/Fd85MnSauR2KHCweX00GGjzwTrx6Yr6j3lli7bPHWXM8i7zuJ1WRSO4H3/85e5WIj7wyX3i70r6zbOtk5rvqJO0H1wBoRGGy3jva/YMSvgJpQBkz9fEQpJaRGhc/pyvLAqWLdo+UMynhOM69LSgshvTZ30A776vs5WI998jX5ByOLXopO3EqXNzeNd5Khuh6Hw2G3vEFF8NxEBJ26HveWBe3Pqr0F/rXUbCsI6pZr5L8AYh/DK0N7U2vZxubJn6SbrxsDxDdm2psroEXIxBPX3q+mH1+mV3AbJ33bvXZ1GZlktTVVFmQv4tNE79IW56xUet+a+/+6j4+hajfV3QEyWA9uBfK6kNs4dQM+cBEuWRMW1s5cw8s64vrtp1XrOdIqt+2NrR6jYaR3Dol4caIRkpAP2rkNj+PZ9+Nv818yuD0T5g/1qB/K/YlmfWQ871tNKUx5pFPk4bTq+h7EpAwpu34Y+uXkb8Yuk4um+TrYovcD7q6SWtNSlSC1MkvTza33LKItCsAVU+70abFKTJj+b1eO9r78aQueKvyQKwQ0qgTRh+VbgE1+Cf6vIbay/cqXp8JexA1hpQSiBgyPQ0eppKn3RFwPkJVM4s4F2jMdBHCsCHVAJ8WvZ2FM4aht/Cd74T4plnqm1Tv0WgCbtpCbQO2729Ude6z+z5407YPIL3DtfkNym7AvCPdstBMDk/Dj50U23oBMELcdFFVVxwAdSbZZNBvJC3P81Wehgi/SSjNuqvv8jCOtvhydeassJzjvV0DvdsievcvjZdxKP814+a8BOd9C+3PyBfErKv0ECJaerq+b6BiU5xndPVnu26bNfnakcdP/MM8L3vyUEsw/9H2gUITLcA7caZ7VqYJQ0Y+AyB/j1sGWHyN84sjOoinWQBFOWPfmK/6LmWrfPt5jE8+XCU5118XOeEpzxy2vK1o47P2glcfLFcfqzV27cyzPn9yEpAOz1s1WccmfUPMhegJ5vl+kyvTsX4ETQe2UMr9I4unXct73mgJnqkJRAxjz0GPP4DpGcEjJ7ftATUNKEiYBarhbl/nVGPGZAr9DYbyzj82pGP5ScLoFPe+BM1MTU22IU1RpkLLwSe/wL5AlO0V1Iy7qmUJYBsjx5q1kCSzO098ai/nC5EHU25Ys/oCz/R7Zt233i1+HHDBYzkYiJDYNcu4CLhEkxNtQcD9YFCfYk0ZfpLdyA084C04OsuhUrShH/UFAEPjyH8/hyZ/OPD1mxJGTXIxDQhk7ECug1rG0kzbVxuuRSec5kcxcKdAPsoI3e0CUt78OzDfd4fCJfgBz9ITwvaIgX1dJj7elktMTVl2LIERsEdkCY/D5dxxy+NXa9/xV8JF6DAz5pBvwXNema6rVzROmaerZ5O3i2slXFHAnbCO9ermJpeEwM+VRAxTzwBPPpoPBXIlL+vj/w7FIAZIZhSAo4ZAmC4SkCa/OFpOco/liv2RAqgpHQ3BmBy01wdjc090VLNRMy55wKXXAJMTxmuANJjAHo8AIDs0mGt41CvA81d0OuZiYC9i+BAx1MpjrbC5t1C+OfGVfglHPnfiOsb4J4287bccg22/bz6rl8tL0/Ru65DWgLTU/R+exNpCZw8me79kx4efjdB26SeKzDzdTNPsaVf1mVftohtxwO4ffxMfpPLx8QCyPlFuqMnFoBCWgKVxh6xdyJXpdn2XXnd1HPVt9XllmNfmgtXmWc9K/6woN2rKwcMgPV9CkmUoWE16L6caUWkjlHsep1p3F2Wy1H+zblJEP5xol9aqj/O43u+uiKa3guizeYm8O/fFtuG0ePDPThopnNk6+q9v9lN9HpsIAyPgzcWJmmRznGxAPpC7sNAW0EGDAFLINrIQUEZNJRyCQDvk4TmYiN6vRSOQcJeKAFpVQSTYfKblF0B9M4FMJEBQ8AyiDaB+LovbLkEocVcT7kFrfRQcwVg1Mm7dXuxErE0+UMxyEsm/0TSPwUgISVgZ+Y84NLLIKZP208PZnx4zb9PBQ0h6/vHFdBWFGi3Ydsvilyh95kzMpb/OIiJpH8ugM67v7ooeqOjINJIl+CR7wNPPumZEdD8f/XMQMDSA4KBaf4zbPk5grCxjEPX1DDhkAswCG58yYoYPJoDhQ6nkS7Bc5+HeI0BtEx+ZHt6m4sQumYSgLRlYJDnEnDxGzVFr18C4ScGpQAkN86dQKM5RwFDFi64MHYJKhW7cKvFRWzjAPpUIbRjVdenCLKJwuTfnCudyW94Uak0WNI4YJ2C5o42fPXz6uWdJ+9cvv+FD8oF0JEBQ5XKmjh11RnEArQvNC8em3nyYLRRtLxZz3Y9qi3uKMs8W7Oc4oyYKnz0EeCHT7dH/QMjhFgSaJXM6UT94pmljInKazaO4PA1pVux5/L/TS7AYJEBQ83mHnH3170aEZ48U/P56qOL8rZzu9pylfVtXdczPR0/Wny+cgm49nRh61iSChRSH7Nt7eJ8YcRhKE3+hTIKPzEMBSCRSmBauAMyapDIIl2Ciy+JFYI+HmB7vFhJc2ZWAO16ibIxFQW/PxqbObxAaz6WlOEoAMmBuQ1MN+RDRMdAZNmxA3jBxfHyY7rPH2pCrKwDaJaBQrcYUihF0ZQv5ZilZ/fLzeDHAGy8Wy44in0g7DzeWmNAElgiA5N9cxpRS1cDDixarusA7lxYAUFjABgFbpQLjlLAkJPzL4ytARk4lHEDNBcheXxYdwXkfvxSI4TN+9H40UtJ+AnFaCgAyUG51iApASc7d8bLjm3fbhd+IKsY1CrEcZkjeOrkPO769YdAEC1GwwXQedf9+8GCQyDcRMuOPRarb9uDRGobW/5PCAughj+7jmL5LZALMGocvPqw6K3iBUdt8fEKa9w83OXMNnx1XW27tua+7zyu3rrI/6PS5TShnC4MLM8SJOWjAcI6zmzOkfATLkZPAUgOvkRMS8lYAdSTtE6E3VbObMNX19W2a+sTcrMd27HvnK42ztZWItZnB9RMQKPxIWxnc/gAmfxeuGefe9K5J73Tc/radJWDJQ/G1nf9LUbPBdCRUYNBsBZFDRJuftB6OUlk8nP5ZNESPvBr1OsX4PL/VWIXgI+qBaCQAUNhGEcNEm5k4NBznit+zUodp57eQ8JPFGUKo8436/GAlpwGk5FxhJ3d58afHz1BT1wShRltC+D3VqvCAlgT/mwVD387XleP8FHFjnMfxNtP0KvbiEKMrgL43b+aFdNX69ELR+TbdJtC+L9VB06fBuFBjgNMBXfgnffeid/+1PkgCA+jqQB+/yPXitHtNXEzz8QJak47jJXAk0+AyCGYvgFXPf/eaCCVIByMngL4g4/vBQvkC0Zm2ktitQLeVdz7978bj3wTeVTF535yCQgXo6UAbvj4kjD3V9oPsEB7wAXph10efyyrBPLmcW1zpPCU0csWmFPNkDeP7KtXZE7adax/gsruyCV4+1f+BKM+5kMMnNGJA3iDEP4QteiujW5qY6svhpEshIH4QRn5IfKJlmMT06pyepWIoDiAUWDf3YfE1dSSq9EfdYXrEdcgTpNWgHQJiHwYq4of/X7c9uXXgUhT1Fr0WWDdWIdmeZ7TDofbOnW17TnPcC2A/asz4BUp/IvJRacWtTCtAWQtgbCVv20HcNEL45V2iXzC5m24eU4+fRmixFz+l+W2AIanAKTwQ4z0cz4Lc5VbtN5oAz0dSJbFUjS5Cn+NP1IJPO8FFDBUFPmwECu3S1B2BTCc7nL/ahWorEfCH2GY9wmWZXn1VXIDzU2QnzOngIe/RQFDRQlYVXxvX8Bb/vE6EKVk8AogFn7R84spKtuS1qnR/lZCMg2olwFSL8oMWgkyYOjfSQkUhgUvxM6dH8E71pdRYopMtPhcbu5oEwXL287Pcz5wtGE7r+taBusC7P+k6PGbq8nTfbbHYhM3AIbfzxPvIP4vw/bsQOqbUaMbQrdddEm8gg5RjGbzq6JLuKZMLsFl5AIMiEj4wzVEwSmt79ylfswXWSRWgeEemK/PDrSy8m06D38zfslGngp1qUyXWjbxqWzAfT54yhU5d9H2XZjnqFReEllnt/7Dz4MoBYNRAAc+sVd0L+viLptpJ2p3JjOuSPX0uhsAZKcFzQ+0OlE7Qgl852Fg43FY8dldZjlbGVt9OOrazldEaH3nLtp+ZwqwirPP/ize8cASiImn/y7AgXv2CbPc/3y6a4WczE1qcQ3UrIDuJqRW6Gltz7swfm4+ghknUH4Fs1yALc1so2g9ZqnvqseN6zLzUOC8rmPbeSw0zvw9piq/OckuAbkA/WT/PUu5wi/JmPcqXd/XblRmqcu0UUF90FBZCycfi8OHI3xdoK2LdXWbndaz1XfVg2PrawMFj/Ouv/WZmv5pcYus4ZbPvBzERNI/BSCFX0b3dYqpCFKzAUa6LY1pgg+tjHp+4NHvg+iIKnY958sT7RLY9LuZbusvzOO8cr60vH7A1z+42ueOMhr9cQH2/81R8XcRvcAMElKGQKgdm/mZRTqTArHLsHMX8NznU9RgpzQ3P4FG5fWoTY5LcNlfUCRg74ii+yryUd55bBXnFCHsSiERfq2g2tfHCZSCoKjBbqnjie/+Av741f+KCaDsCqB3XWAU4DO1BlP4XeYRYDeXknIsm27WyQQKQZs61HRbwNKugdyeOU0BQ91Rxe7n/QvNEkwGvbEApPDzihT+am5ZfSC8KJl19ZM/6WOuJejWgvlQUai5A/J9e/Ihoqnp7HWqtn2TBtwoX4SMErPkuc5p4psIsF2vWdZsg8M9UWC20Qj/B+rfP4APvtoxzzr6tC0A858z/2nbFrB/STquL18/D+CeveE5eeiwvpYm5GLrCqAT4e8WKcCqR888OATtu9dM/dY/aB0PSD6tncp07A5s3wGiY+p48smfwx//zL9hDLnsL57otDuaHLbsAuxfnRXCv45+Cr+EsawVoMx/GCP+qS2QXllIcxOSD2s/PyCjBolOqeKc3Q/irffSsmNjSPcK4A2f2Nvq+WcwCJhNqKEpAqSnAVPltHyYdVv5MnT4ew/TgqPdIL/HytQdWP7Kn9BKxONFdwrgDffsA2uuIAnttY3QceNj5iMnz2y39VGmvu686IKtdk1jIBUcpCkG9Uix+iYe+Q7w+KMgumB6+vW4/Hn3okYrEY8LnSuAN9yzBBZq0X22YfqCwuzN8yiGzFgLz45zJMFArC38elBQJuBIcw9kwBApgW6pYorfj9vW94MYeTpTALHw1zAS8HRPb7UuWHoQ1rQCVCAQ08wFtdagDB1+7HsguiBeifhQ5BLQSsQjDStccp+M7uOLGEVc04R6cqhlJjMILd/f9TpvOU14zrnAc54Polt4HWf4nlGNHoxmAWwzdxJzls01u6bv2+r5yvjOhZw0V56tTUdevgKIF+6Uwn8tRhUlsGq2QBdwfdpQVxSp6UTEikDPU21IJRAtOHoJhQ53C+cb2Nz8r6i94s8xYlz2P2ka0E0k/MHaSAu/RJn2XFdrFt1mjvybbdjGB6KowVPAN/9NvnW3HqXZvA1z6xnCsA6DuNK55+PD1Q6QP+TiOr8r33WdCWwG09s+iLdFy46RFh0h3D9GFOATrIsfMl6403fz6Ok6eTeV2U4nN6jZXmIGMcMcMqcAWVoJaOODcdlWZT18mPMvYvPMXLSCLscJIOeaUeD/gCXPlu6jiHLwCaytPVc9Xz7PuT4FC96Ct554kGYJRge7CxALf7xw57ihogZT5n6qQNu851odc6vKbIZHcPQ/HUhaqa2L3kx8N2gpRqJzwvBb4nvdj9tetoohQy6AyX9ZnUU4psIvMYN/on3blmXdgfR2A2c2rxPCL6ez2jdJbW4Dt1w9J1KOgeiOIHghtk99rOUSEEMkbQHsX50Xwh+/mXfc8S4zpvf4ylrg7fxQzGM3n1nAB37rIfh463pN3MxLILpHrkQcsmuGNUtQdgugrQBi4V/DpJH3JKEqo9JDfgTv/9UDyPfAY6xKQFW1eVgc2XmaInM85haOdmC0pdczr8MsA7jns2x5rv/D1551LqyOHz7xO3jHKz+PAUMugET6/GFwFGXAOkMQhQRvIMT1QvjTJn8eb56rCZ922T8CZ+bZyrngji0853PV5zll4Cljy3P9H7xAnVSZKs7e/Tm84/4lEAMlVgDRa7mlz+/6kXw3DwrmwZFnO867afKuQStn64T1qMDoWJj8pzZfivdft4JukEoA/HoQW4PzGpbv/QLNEgyOIF7Jh+11C1dRYcvL44C3Nyx6/k6UUgv7XId6COgInn5iHh/49YewFW6ZWxHnlIODG84O0nF51rLcsi36r7vK+L5KFDy3rZyrTF6aLa9SeSWm2RpuHMJKxL5bFMi/bfPqm/u+c9vOYavj2nfVMcoEovcvx0Mb+nx//O1soNE8gD9Z2I+V6zfQC26ZO4GGUAIMdesPUuQHdt14sOzntQ9LvbybO+/crv8BjnZ8ae68KnY/+8u4bQAuQVEh8/0GPKd9/TzmOfN+L+TUKfpbOM4XgLOrUTaYGHSqCEH9s+vy31nQKXI0e5PviZQAsTUC4RLU7v04uQT9Q44BtANa8rRMjjZx9iLwHNt6nKJa06c9XVo55MfEjTWHwwt19AtSAr1jqvJaVIRL8KYvXgai50gFMFPIBPJhq+8y8VyKA3CbWXnXUEQhRb45P4C7FhaF8PfG5PcRK4E5sXcCxNZgwiU4+5wHB+ISlIyyPJhRR/PMHty50HuT34eMGmwISwCcoga3SjRgK1yC2+471stlx1z9EC+Qx3Payst3bV1Grqt9m8EMTx09TSqAOiYZjrsjf/99vz6cnlgqgVvnFoX1cQTE1gmC30L1uT1ddswlZHl5er5LCH35rq3rGl3to4NzmmXEICD/AiaR+M3BwuS/dmEgJn8eb57bL66JYt97QxUBewjLtBLxVpEWwAomj7qY3pzDnw7Y5M9DBgxJJeCzJ/O6k7x63XRZtjK2PF7g3K5yPOdcyDkXLG2wyh2o0UrEWyEOkXn93Wvoxfv8RgHOj2MKo9Hru3jburAG2CEQ3cP1HTGtG3a37NilH6ZnATAxpmlk8i/sGWnhl9w6JywTvgAZjER0jhLZJKRbuAQ8vB9vvrfzoLYiVphZ3pXeqSXnux7ftdnyXPmA1+qLFcBdC8djJVDEXnOVKXKlrnaKtA1HG9G+mHLb3DNyJr+PN8/dLUa1xQwBxQp0TXILyK4s2I1KcEgMDkrLqvvZLddtV/TWdrUB5N/ueUqCe/Jc+dxThptR8jes1kTKEsYJjuNoyKf4+hjY00/kaLYMdMGYLsAyLLhxkBIu0SEwVsgluPRD5AK0uWuhJhKXO++A4deCRcrr6b7zp9LD5cjkH1fhl8ibtEmWQEfkiSxjVYThOt70j68D4SVrKsVKIJ5e8Zk9MNL1vDzr31bepxAy9bh84m4P7rquhklAKQFOUYPdwVKb+GZhM9i27YO49Uu3gXDCnDk3rMqlwI9i9JYHG2+T34dccLTC5Hc+2suwjwpc2zE7ilC5BeJPM6xj+5TVJSi7C8C8BeQCoQyrUSz2KBCGR/C+6yb/8eW3rq+IacK90b65upZ+u/p+PZ5ThsO+SpjrfL5Vy0yKXKfrXHkrkvkGwMyXwIStA3kcNr+N05sHcMdPfVSvRmMAPt63cAJNSNO0juGygWZzoRTCL3lzFDocT81yrWvjhm+lbnTbB+mi7Y/Kt9VRPam+DyNdb9Sxzw2fjvPsdVjPxbWytnZdZTisb4DSlQmrXIxt2z+CG+9dApHACpX6vVUxUo21oVgC0i9uYmEiTf48ltfHb1ZmUHDHcaLk1LGyAFoJcrvZ+Bqmd/wy3jVXJxegKFIJTEEuGT7AF2IIk/+ukvT6LkgJZNFdBV3wzbEAU/CjLZRSqOOZp37n0v/wss+hrHSkACTyXYGNSAnMo7/IFXoPCBdkBYQcHFwUztpREG1098R8Cawk5f+rNJ62EMTxpVf/WLZtczxCH6fInN9SzgZLX66zXb2MvnWVA4qtDm+7hrBTBaC44WMr8UKifeGEUDLlNPl91NZnhRJYwyS8tGWrmIKh9/ySkNuHKWS6YQlYFUBZ4N2GTN71K4virxE6rLVqHSAy862/0BHhZox3YE+/qM2diJ5wpIAhP3oPGykJrn20Mt7uujx0ZwEobvhoTTSxFO3rX7w61s9gM2fav4Ew+cWodz8W6Zw0ZOhwbAlUUWYy/YoxC5C4Apo1YE4NNsU04CxZAN0jI/HkOntmR+4zCJDZr6PJ5kj4CyKDWUJhJZXZEjA7G/DUJh4TgN34VB1P9BZplJ6trwn4p0JwWdjlo63hMUwL4SeTvzNiJTAXTZH6FG4RbMrZ1RbP+QDuTgAF8vPagadcKo/by2aCjTr5oiaT3unAKFYgPCqanC9QWpj8TWHy/xr1+ltleX1F/N2LsqL8+ZRS4Nn91MAg1wYBX4TS0hcj6Ia/ngevLIrGX2UEDgkLgYseK7gb23Bs5BftGCdqJYsV0E15lWAO8GX8fm1fDQrKMYA5UgD9Q8YNnGpNW5GZ31/KqAT0A9OVyTwL0MrQpwFlHMAsKQBiUiiLErBZAJJQL2MoAKUEDKVQdgVQlheDlIOaXHUY12PSsT0VKI/V3ayPAZhlMjMG5YYUwKRRm1sBj6YJyzXGkooxsRi2yeg/S6eZ+7ZZCP0DT74PWxnf+VHgOmzXA0++JY0UwCRSmzveUgJ1lIVcweDZcQOGfMHxnceVV1RxAO7z5ykVW3142nKkkQKYVGToMNfWcvD1ML58vZzvRi3aS9naspVxXUNeGVUgUybvCZxyQgpgkomXwLIrAZdAm/l5PYwPXy9k289TLGYdV10p3LZxAuUCFLn2kkAKYNJRSmASX1OedOaO3pz5KhESUgBloK0E7sYkocf162mA21Iw65YccoTKRu3ew+Jn35fNsK3KCS3NzONGPViObXmuura2Yc/jrP2orz6Ql7gBPDv4pxSFHhJMcQBkAZSO2sv2i19+OZvhcsBdeWY927EtL28QwOfkWwYVOGC9VtdKxJYxANt/ioJX4dv66rjyzby8re1jK2urJyEFUEZqL6vZlcC4o93u3FASDgnxCYitmq2sa+ur48rvRsnAcx7ArYDkPimAsiKVgFzLYRxhjv0ErnkbPJ3GODm+GqQAyszyy8R4QDierymXcq2PA+jpGTOfZ3eZYQJwz3lsaWa36jMffO3A0gYc6b7zAG6TAnCaH6QAyk7t5WJmoDFeocOJ8AMZYff17smyYVwbO0Ax4TXT9Gux7dvK+NqGp0yR8zgEPJNn1CEFQAgl8JMnhOT4Fxwt0oMVrZeHSzisZXj+zZ70+iDz34AUABETxQqwOGrQ1Zvk9WBFe9C8D5DfK/p6YnjKKOuhK800eZACINpIJcBY/BDROMiHcgEy6a2L15cHz9QjJKQAiDSxEpDuwOiGDmcEmKXTvaHBmj9AioA8IsLDW+5bEXfIXowayoznegI0N4GnkpPoP8urwaqzL0ZpoUFAwsttL10U02WjGTDk8u8lrMCiH5y6fwkpAMKPDBgaVSVgYsYDqKm+EJbBPzJ+xXexQQqAyGfUlEBqOk8N+Bm9fvJhhmJgJPsKhhOkAIhiREogvL4n03tFp/h4gX11bL74Q1cQKZPfMP3VOwL0ffMDvT6yeSauNjrJs7Vp7vu2rrzUuVidFABRnNrLVxA05AzBBngX9W2C7yrDC9RTPXwGywg/M/MsAuHCJlh6nkugbeWK5rmUUBHh19uwXX9yzI6TAiA6Q0YNBmy4ryl3yHwqOjBJZ9nVgFV6mYnGRJofJwVAdI6MFQhaAUOjQjLIp5GaKtTKqIeIygxnK/Xrz6NBQKJLRlEJ6JiDhCotcSFKHAgk/+8gjAZ1SQEQ3RMrgcFHDeaNHzDmz3cdlwXOl0XvX5e7pACIrVGb24gsgTA8ButQvtp3feApB0t+i2hhD6Oc3utnYgJ4ugmby1AGOOr13z6vpg5JARBbRyqBt718UdxdR+KE1DB9TuU8gTfzW4KfqcKNamrE22hKL1S+cYC6+O726AmkAIjecdvL94ML39Iht6mtmdapzrAlmOsA6iTLgXHtuFQmQF18KXuU6a8gBUD0lre+oibcgXTUoE0J+BSCXsblNfjyucPZzy03oYTNB3AqK/wSUgBE73m7UAII+7fgqM3015/9Z8xemDnqTCrRv8mXEQSvrP9+VvglFBVN9I9bv3KtEMajYm8GvYQ7EvWePWUptPx99VCQKjupjwNHA5xsBafCZZfgK0gBEP2l9qVZNCurYq+KXpFM9yEt0Bzp14Wpbdgqr68H0DquXv3idFusyPk8x7565ouRzDxbWzynXLr8Rmsg9rAM8kEBSAEQ/ae2XkUzXEM/lIB+EGpJStihKYBEGWgWwNUTYQFsiP/tiHDoCwu+ghQAMRh6qQRsswCpAULjONRmCXRXYPxdgK4FX0EKgBgcUgmEfFXctLPYCtyRYI4B6BZAS+DjciptbBXABppC8Ke6F3wFKQBisNTWZ9AQSoDxeXSL6QtzQwGoNN3cT8YDNHdh3BQAF4If9kbwFaQAiOFwy1dWxEj13mjf9ZZwF0oBhFqCLvy2GQFzYHC8XIC6mLGv1V+3+xh6DMUBEMPh7S9fjKIGJbpJzwt+dOFXMKONFPo4ADAmQUDHm49/99X1181c2g/hl5AFQAyXW75cAwuWOqqTmQ5rmfuRVcDjQCDLlF+q92+ljagFcFz4+Mv13z3vOPoMKQBi+HSqBFIKwPT/HTMAhu+vlMGIKYCBCb6CFAAxGtz8lUUEUdRgPpkYAJbu6VWydzowPr5EKABfbA337LPsVVgv0xb/g3T5gQu+5RoIYsjc/KVZBJU1+EKHbcJvDvrZXADHIOAlugXgklCbFrAdu+o5EJc5NMFX0CAgMTq84ydPYDOYA89ZZowZO3ovb673Z+uWuZbJzTRXWUsZl4BzeIWfg61sfudrLxKDe3uGKfwSsgCI0ePgehVT4Zq4O6updKtQaYN6SY/P2ua+HghkWgDic8nVL8KA2AibZz5caU6/N+8BnUFCCoAYTUwloFn7bXj62Az8UfVMwY/KxjuXvKTvCmCD9Th4p5eQAiBGFxk1uNlcE3uzKek3lQHXBgJ1wUfb108Ch4xxgT4qgJEWfAUpAGL0kVGDwF53cI92yLWETCgwDCUhBgFf0vNpwLEQfAUpAGI8uEnGCrCldCJP7+q9uyTjEqRnC6a2TeMFP3YFesRYCb6CFAAxPmSUgEUBRPsWVyDM5p21axeeXb0IW4GHjYdZo3mY7dj2wXESfAUpAGK8SCkBiwsQbS1z//pxa/+CFzwPu847F90gBP9rQWXb7f2K0R8UpACI8eNNX1pEEBzNKAC1r4RePRsgUc8KtPKmpoX5f9Xl6BiO44wPN3inl5ACIMaTg1+exxSTi4vEUYPG9F5aKWStgGddfBF27t6F7MAiXGv4TZTgK0gBEOOLDB3mLL3gqG0w0Aj+mXnWBTj3WReiIBMp+ApSAMR4c/AfqmBTa4AWMBRts5ZAIG738577bOw6t5DfP9GCryAFQIw91T87WX3kse/Wzpw+vbex2YgTNQsgYAHOOW8Gu88/Xwwd+B9/4c3GPUFQuWPSBV9BCoCYGKr/7eTiqc3TS81Gs8qbzUgJTG/fjm07duTWlQ/o8Mcfedu3b7zyQZQIUgDExFH97yfnxaD/ImPsVYDxQFEaaeZ/YdyCd3oJKQBioqkePTmDBmbFnT7TDDFTCeTKuqhjGvWyCr3O/we8as4bGYw4JwAAAABJRU5ErkJggg==;" vertex="1" parent="1">
          <mxGeometry width="256" height="256" as="geometry" />
        </mxCell>
        <mxCell id="vbEgGCxjRnSzqnuDYByg-2" value="" style="ellipse;whiteSpace=wrap;html=1;aspect=fixed;fillColor=#CB3C33;strokeColor=#E6E6E6;strokeWidth=1;" vertex="1" parent="1">
          <mxGeometry x="195.00770657326518" y="35" width="57.9922934267348" height="57.9922934267348" as="geometry" />
        </mxCell>
        <mxCell id="vbEgGCxjRnSzqnuDYByg-3" value="" style="ellipse;whiteSpace=wrap;html=1;aspect=fixed;fillColor=#9558B2;strokeColor=#E6E6E6;strokeWidth=1;" vertex="1" parent="1">
          <mxGeometry x="195.00770657326518" y="100" width="57.9922934267348" height="57.9922934267348" as="geometry" />
        </mxCell>
        <mxCell id="vbEgGCxjRnSzqnuDYByg-5" value="" style="ellipse;whiteSpace=wrap;html=1;aspect=fixed;fillColor=#389826;strokeColor=#E6E6E6;strokeWidth=1;" vertex="1" parent="1">
          <mxGeometry x="195.00770657326518" y="165.2688728024819" width="57.9922934267348" height="57.9922934267348" as="geometry" />
        </mxCell>
      </root>
    </mxGraphModel>
  </diagram>
</mxfile>
